<?xml version="1.0" encoding="UTF-8"?>
<!DOCTYPE svg PUBLIC "-//W3C//DTD SVG 1.1//EN" "http://www.w3.org/Graphics/SVG/1.1/DTD/svg11.dtd">
<svg xmlns="http://www.w3.org/2000/svg" version="1.1" width="400px" height="400px" style="shape-rendering:geometricPrecision; text-rendering:geometricPrecision; image-rendering:optimizeQuality; fill-rule:evenodd; clip-rule:evenodd" xmlns:xlink="http://www.w3.org/1999/xlink">
<g><path style="opacity:0.999" fill="#6d6d6d" d="M 299.5,201.5 C 298.833,201.5 298.5,201.833 298.5,202.5C 297.5,202.5 296.5,202.5 295.5,202.5C 299.662,187.01 300.496,171.01 298,154.5C 296.312,153.675 296.145,152.675 297.5,151.5C 295.291,147.243 293.625,143.077 292.5,139C 292.833,138.667 293.167,138.333 293.5,138C 291.519,137.395 291.185,136.395 292.5,135C 290.699,134.683 290.366,134.016 291.5,133C 289.699,132.683 289.366,132.016 290.5,131C 288.699,130.683 288.366,130.016 289.5,129C 286.149,125.015 282.483,120.015 278.5,114C 278.833,113.667 279.167,113.333 279.5,113C 274.333,106.5 268.5,100.667 262,95.5C 261.667,95.8333 261.333,96.1667 261,96.5C 258.114,94.3657 255.447,92.0323 253,89.5C 251.984,90.6341 251.317,90.3008 251,88.5C 250.667,88.8333 250.333,89.1667 250,89.5C 233.276,78.1606 212.776,74.3273 188.5,78C 184.539,78.4037 180.872,79.5704 177.5,81.5C 176.914,81.2907 176.414,80.9574 176,80.5C 173.638,81.6264 171.471,82.9597 169.5,84.5C 168.227,84.2545 167.06,84.2545 166,84.5C 165.683,86.3008 165.016,86.6341 164,85.5C 163.683,87.3008 163.016,87.6341 162,86.5C 161.683,88.3008 161.016,88.6341 160,87.5C 157.925,90.1557 154.925,92.489 151,94.5C 150.667,94.1667 150.333,93.8333 150,93.5C 142.5,101 134.667,108.833 126.5,117C 126.833,117.333 127.167,117.667 127.5,118C 125.321,118.442 124.655,119.442 125.5,121C 124.664,123.14 122.997,125.14 120.5,127C 121.634,128.016 121.301,128.683 119.5,129C 120.634,130.016 120.301,130.683 118.5,131C 118.254,132.06 118.254,133.227 118.5,134.5C 117.975,135.192 117.308,135.692 116.5,136C 117.634,137.016 117.301,137.683 115.5,138C 115.957,138.414 116.291,138.914 116.5,139.5C 112.95,145.535 110.783,152.868 110,161.5C 109.333,169.167 109.333,176.833 110,184.5C 110.589,191.472 112.089,197.805 114.5,203.5C 112.708,203.634 111.042,203.301 109.5,202.5C 109.232,198.192 107.899,194.359 105.5,191C 105.957,190.586 106.291,190.086 106.5,189.5C 103.147,174.284 102.647,158.951 105,143.5C 106.038,138.345 107.538,133.345 109.5,128.5C 108.098,127.158 108.431,126.324 110.5,126C 110.043,125.586 109.709,125.086 109.5,124.5C 110.562,123.23 111.562,122.063 112.5,121C 111.366,119.984 111.699,119.317 113.5,119C 112.366,117.984 112.699,117.317 114.5,117C 113.366,115.984 113.699,115.317 115.5,115C 114.366,113.984 114.699,113.317 116.5,113C 115.844,110.67 116.844,109.003 119.5,108C 118.655,106.442 119.321,105.442 121.5,105C 121.167,104.667 120.833,104.333 120.5,104C 121.833,103 123.167,102 124.5,101C 124.167,100.667 123.833,100.333 123.5,100C 124.701,99.0975 125.535,97.9308 126,96.5C 127.579,97.172 128.746,96.5053 129.5,94.5C 132.5,92.1667 135.167,89.5 137.5,86.5C 139.505,85.746 140.172,84.5793 139.5,83C 140.931,82.5348 142.097,81.7014 143,80.5C 143.333,80.8333 143.667,81.1667 144,81.5C 147.916,75.9461 152.582,72.9461 158,72.5C 158.317,70.6992 158.984,70.3659 160,71.5C 160.317,69.6992 160.984,69.3659 162,70.5C 162.317,68.6992 162.984,68.3659 164,69.5C 165.144,67.0829 166.81,66.4162 169,67.5C 188.7,59.6004 209.533,58.6004 231.5,64.5C 232.842,63.0977 233.676,63.4311 234,65.5C 235.395,64.1854 236.395,64.5188 237,66.5C 238.395,65.1854 239.395,65.5188 240,67.5C 241.333,67.5 242.667,67.5 244,67.5C 244.918,69.6324 246.251,70.299 248,69.5C 248.317,71.3008 248.984,71.6341 250,70.5C 250.317,72.3008 250.984,72.6341 252,71.5C 252.317,73.3008 252.984,73.6341 254,72.5C 257.224,74.2408 260.724,76.4075 264.5,79C 273.001,86.167 280.501,93.667 287,101.5C 289.593,105.276 291.759,108.776 293.5,112C 293.167,112.333 292.833,112.667 292.5,113C 295.447,114.223 296.447,116.223 295.5,119C 297.301,119.317 297.634,119.984 296.5,121C 297.167,121.333 297.833,121.667 298.5,122C 298.835,123.164 298.835,124.497 298.5,126C 300.301,126.317 300.634,126.984 299.5,128C 300.5,129.667 301.5,131.333 302.5,133C 302.167,133.333 301.833,133.667 301.5,134C 303.171,139.018 304.338,144.185 305,149.5C 307.002,168.412 305.168,185.745 299.5,201.5 Z M 217.5,136.5 C 217.833,137.833 218.167,137.833 218.5,136.5C 219.167,136.5 219.5,136.833 219.5,137.5C 220.5,139.167 221.833,140.5 223.5,141.5C 223.328,142.492 223.662,143.158 224.5,143.5C 224.918,144.222 225.584,144.722 226.5,145C 226.167,145.333 225.833,145.667 225.5,146C 226.357,146.689 227.023,147.522 227.5,148.5C 226.948,150.003 226.948,151.669 227.5,153.5C 211.833,153.5 196.167,153.5 180.5,153.5C 180.48,151.857 181.147,150.524 182.5,149.5C 182.137,148.817 181.804,148.15 181.5,147.5C 183.522,146.493 184.855,144.826 185.5,142.5C 186.833,140.5 188.5,138.833 190.5,137.5C 191.88,135.393 193.38,134.06 195,133.5C 195.414,133.957 195.914,134.291 196.5,134.5C 201.632,132.192 206.965,131.859 212.5,133.5C 213.647,133.818 214.481,134.484 215,135.5C 215.333,135.167 215.667,134.833 216,134.5C 216.278,135.416 216.778,136.082 217.5,136.5 Z"/></g>
<g><path style="opacity:0.106" fill="#242424" d="M 137.5,86.5 C 135.167,89.5 132.5,92.1667 129.5,94.5C 129.062,94.5654 128.728,94.3988 128.5,94C 131.333,91.1667 134.167,88.3333 137,85.5C 137.399,85.7284 137.565,86.0618 137.5,86.5 Z"/></g>
<g><path style="opacity:0.999" fill="#2c7fa3" d="M 222.5,119.5 C 224.05,120.441 225.716,121.107 227.5,121.5C 227.833,122.833 228.167,122.833 228.5,121.5C 232.636,124.088 236.636,127.588 240.5,132C 240.167,132.333 239.833,132.667 239.5,133C 241.679,133.442 242.345,134.442 241.5,136C 243.301,136.317 243.634,136.984 242.5,138C 244.301,138.317 244.634,138.984 243.5,140C 245.605,141.335 246.271,143.002 245.5,145C 247.477,153.356 247.977,161.856 247,170.5C 224.909,169.506 202.742,169.173 180.5,169.5C 180.141,171.766 180.808,173.599 182.5,175C 182.043,175.414 181.709,175.914 181.5,176.5C 182.687,177.519 183.687,178.686 184.5,180C 184.167,180.333 183.833,180.667 183.5,181C 185.679,181.442 186.345,182.442 185.5,184C 186.469,185.758 187.636,186.258 189,185.5C 197.521,193.341 206.688,194.341 216.5,188.5C 216.833,189.833 217.167,189.833 217.5,188.5C 220.167,187.833 221.833,186.167 222.5,183.5C 222.272,182.331 222.772,180.997 224,179.5C 230.915,179.573 237.915,179.573 245,179.5C 245.265,181.163 244.765,182.663 243.5,184C 244.447,186.777 243.447,188.777 240.5,190C 240.833,190.333 241.167,190.667 241.5,191C 237.168,193.997 233.168,197.997 229.5,203C 228.24,204.113 227.073,204.28 226,203.5C 224.937,204.438 223.77,205.438 222.5,206.5C 221.094,205.332 219.928,205.665 219,207.5C 218.667,207.167 218.333,206.833 218,206.5C 208.091,209.359 198.258,209.026 188.5,205.5C 187.158,206.902 186.324,206.569 186,204.5C 184.984,205.634 184.317,205.301 184,203.5C 182.984,204.634 182.317,204.301 182,202.5C 180.927,203.28 179.76,203.113 178.5,202C 176.451,199.407 174.285,196.907 172,194.5C 169.636,193.62 167.803,191.62 166.5,188.5C 167.833,188.167 167.833,187.833 166.5,187.5C 166.107,185.716 165.441,184.05 164.5,182.5C 163.222,181.251 162.222,179.751 161.5,178C 160.21,167.66 160.21,157.327 161.5,147C 163.335,146.072 163.668,144.906 162.5,143.5C 163.025,142.808 163.692,142.308 164.5,142C 163.366,140.984 163.699,140.317 165.5,140C 164.366,138.984 164.699,138.317 166.5,138C 165.366,136.984 165.699,136.317 167.5,136C 166.72,134.927 166.887,133.76 168,132.5C 169.713,131.122 171.047,129.455 172,127.5C 172.914,128.654 173.747,128.487 174.5,127C 174.167,126.667 173.833,126.333 173.5,126C 174.931,125.535 176.097,124.701 177,123.5C 177.333,123.833 177.667,124.167 178,124.5C 178.852,123.429 179.685,122.429 180.5,121.5C 180.833,122.833 181.167,122.833 181.5,121.5C 183.284,121.107 184.95,120.441 186.5,119.5C 198.011,114.282 210.011,114.282 222.5,119.5 Z M 217.5,136.5 C 217.833,137.833 218.167,137.833 218.5,136.5C 219.167,136.5 219.5,136.833 219.5,137.5C 220.5,139.167 221.833,140.5 223.5,141.5C 223.328,142.492 223.662,143.158 224.5,143.5C 224.918,144.222 225.584,144.722 226.5,145C 226.167,145.333 225.833,145.667 225.5,146C 226.357,146.689 227.023,147.522 227.5,148.5C 226.948,150.003 226.948,151.669 227.5,153.5C 211.833,153.5 196.167,153.5 180.5,153.5C 180.48,151.857 181.147,150.524 182.5,149.5C 182.137,148.817 181.804,148.15 181.5,147.5C 183.522,146.493 184.855,144.826 185.5,142.5C 186.833,140.5 188.5,138.833 190.5,137.5C 191.88,135.393 193.38,134.06 195,133.5C 195.414,133.957 195.914,134.291 196.5,134.5C 201.632,132.192 206.965,131.859 212.5,133.5C 213.647,133.818 214.481,134.484 215,135.5C 215.333,135.167 215.667,134.833 216,134.5C 216.278,135.416 216.778,136.082 217.5,136.5 Z"/></g>
<g><path style="opacity:0.006" fill="#070a11" d="M 186.5,119.5 C 184.95,120.441 183.284,121.107 181.5,121.5C 181.167,121.5 180.833,121.5 180.5,121.5C 182.316,119.559 184.316,118.892 186.5,119.5 Z"/></g>
<g><path style="opacity:0.006" fill="#000606" d="M 222.5,119.5 C 224.684,118.892 226.684,119.559 228.5,121.5C 228.167,121.5 227.833,121.5 227.5,121.5C 225.716,121.107 224.05,120.441 222.5,119.5 Z"/></g>
<g><path style="opacity:0.106" fill="#101c22" d="M 219.5,137.5 C 221.833,137.833 223.167,139.167 223.5,141.5C 221.833,140.5 220.5,139.167 219.5,137.5 Z"/></g>
<g><path style="opacity:0.007" fill="#060d11" d="M 185.5,142.5 C 184.855,144.826 183.522,146.493 181.5,147.5C 182.145,145.174 183.478,143.507 185.5,142.5 Z"/></g>
<g><path style="opacity:0.004" fill="#020c0c" d="M 164.5,182.5 C 165.441,184.05 166.107,185.716 166.5,187.5C 166.5,187.833 166.5,188.167 166.5,188.5C 164.559,186.684 163.892,184.684 164.5,182.5 Z"/></g>
<g><path style="opacity:0.071" fill="#0d191e" d="M 222.5,183.5 C 221.833,186.167 220.167,187.833 217.5,188.5C 217.167,188.5 216.833,188.5 216.5,188.5C 218.475,186.863 220.475,185.196 222.5,183.5 Z"/></g>
<g><path style="opacity:0.004" fill="#000000" d="M 345.5,201.5 C 346.833,202.167 346.833,202.167 345.5,201.5 Z"/></g>
<g><path style="opacity:1" fill="#e8a62b" d="M 109.5,202.5 C 111.042,203.301 112.708,203.634 114.5,203.5C 120.103,203.906 125.603,204.906 131,206.5C 131.772,206.355 132.439,206.022 133,205.5C 136.42,207.537 140.087,209.203 144,210.5C 144.333,210.167 144.667,209.833 145,209.5C 145.278,210.416 145.778,211.082 146.5,211.5C 147.167,211.833 147.833,212.167 148.5,212.5C 149.117,212.389 149.617,212.056 150,211.5C 151.155,212.338 152.322,213.338 153.5,214.5C 154.167,214.833 154.833,215.167 155.5,215.5C 156.825,214.047 157.658,214.381 158,216.5C 159.016,215.366 159.683,215.699 160,217.5C 161.016,216.366 161.683,216.699 162,218.5C 163.016,217.366 163.683,217.699 164,219.5C 165.016,218.366 165.683,218.699 166,220.5C 166.333,220.167 166.667,219.833 167,219.5C 168.155,220.338 169.322,221.338 170.5,222.5C 170.842,223.338 171.508,223.672 172.5,223.5C 172.833,224.833 173.167,224.833 173.5,223.5C 174.833,224.5 176.167,225.5 177.5,226.5C 177.842,227.338 178.508,227.672 179.5,227.5C 179.833,228.833 180.167,228.833 180.5,227.5C 182.478,227.738 184.145,229.071 185.5,231.5C 185.842,232.338 186.508,232.672 187.5,232.5C 187.833,233.833 188.167,233.833 188.5,232.5C 190.5,234.167 192.5,235.833 194.5,237.5C 194.842,238.338 195.508,238.672 196.5,238.5C 196.5,238.833 196.5,239.167 196.5,239.5C 196.167,239.5 195.833,239.5 195.5,239.5C 195.167,239.5 194.833,239.5 194.5,239.5C 194.167,239.5 193.833,239.5 193.5,239.5C 193.5,238.833 193.167,238.5 192.5,238.5C 192.167,238.5 191.833,238.5 191.5,238.5C 191.5,237.833 191.167,237.5 190.5,237.5C 189.833,237.167 189.167,236.833 188.5,236.5C 188.167,236.5 187.833,236.5 187.5,236.5C 187.167,236.5 186.833,236.5 186.5,236.5C 186.5,235.833 186.167,235.5 185.5,235.5C 185.167,235.5 184.833,235.5 184.5,235.5C 184.5,234.833 184.167,234.5 183.5,234.5C 182.833,234.167 182.167,233.833 181.5,233.5C 181.167,233.5 180.833,233.5 180.5,233.5C 180.167,233.5 179.833,233.5 179.5,233.5C 179.5,232.833 179.167,232.5 178.5,232.5C 177.833,232.167 177.167,231.833 176.5,231.5C 176.167,231.5 175.833,231.5 175.5,231.5C 174.833,231.167 174.167,230.833 173.5,230.5C 172.833,230.833 172.167,231.167 171.5,231.5C 171.611,229.352 170.944,229.019 169.5,230.5C 168.803,228.615 167.803,228.282 166.5,229.5C 165.803,227.615 164.803,227.282 163.5,228.5C 162.803,226.615 161.803,226.282 160.5,227.5C 151.349,223.385 141.349,221.051 130.5,220.5C 126.167,219.167 121.833,219.167 117.5,220.5C 107.385,220.541 97.3853,221.541 87.5,223.5C 86.8076,222.975 86.3076,222.308 86,221.5C 83.6696,222.156 82.0029,221.156 81,218.5C 80.6667,218.833 80.3333,219.167 80,219.5C 79.1482,218.429 78.3149,217.429 77.5,216.5C 77.1583,215.662 76.4916,215.328 75.5,215.5C 75.1667,214.167 74.8333,214.167 74.5,215.5C 73.8333,214.833 73.1667,214.167 72.5,213.5C 72.1667,212.167 71.8333,212.167 71.5,213.5C 68.9609,212.038 66.6276,210.371 64.5,208.5C 64.1667,207.167 63.8333,207.167 63.5,208.5C 60.9729,207.125 58.6396,205.458 56.5,203.5C 58.4233,202.692 60.4233,202.192 62.5,202C 78.1825,201.284 93.8491,201.45 109.5,202.5 Z"/></g>
<g><path style="opacity:1" fill="#e6a52b" d="M 299.5,201.5 C 314.855,201.267 330.188,201.601 345.5,202.5C 345.5,202.833 345.5,203.167 345.5,203.5C 344.833,203.5 344.5,203.833 344.5,204.5C 343.508,204.328 342.842,204.662 342.5,205.5C 341.461,207.531 339.795,208.864 337.5,209.5C 337.167,208.167 336.833,208.167 336.5,209.5C 335.508,209.328 334.842,209.662 334.5,210.5C 333.461,212.531 331.795,213.864 329.5,214.5C 329.167,213.167 328.833,213.167 328.5,214.5C 327.508,214.328 326.842,214.662 326.5,215.5C 325.833,215.5 325.5,215.833 325.5,216.5C 323.973,216.427 322.973,217.094 322.5,218.5C 321.357,220.5 319.857,221.167 318,220.5C 317.581,221.672 316.915,222.672 316,223.5C 307.229,221.893 298.062,220.893 288.5,220.5C 288.167,220.5 287.833,220.5 287.5,220.5C 269.331,219.36 252.998,222.027 238.5,228.5C 237.056,227.019 236.389,227.352 236.5,229.5C 235.209,229.263 234.209,229.596 233.5,230.5C 232.105,229.185 231.105,229.519 230.5,231.5C 229.075,229.969 228.409,230.302 228.5,232.5C 227.504,232.586 226.671,232.252 226,231.5C 225.536,232.094 225.369,232.761 225.5,233.5C 224.833,233.167 224.167,232.833 223.5,232.5C 222.833,232.833 222.167,233.167 221.5,233.5C 220.778,233.918 220.278,234.584 220,235.5C 219.667,235.167 219.333,234.833 219,234.5C 218.395,236.481 217.395,236.815 216,235.5C 215.516,237.178 214.683,237.844 213.5,237.5C 211.297,237.604 209.297,238.27 207.5,239.5C 206.778,239.918 206.278,240.584 206,241.5C 205.617,240.944 205.117,240.611 204.5,240.5C 204.833,239.833 205.167,239.167 205.5,238.5C 206.242,236.65 207.242,235.984 208.5,236.5C 209.492,236.672 210.158,236.338 210.5,235.5C 211.511,233.409 212.845,232.409 214.5,232.5C 216.153,232.34 217.486,231.674 218.5,230.5C 219.167,230.5 219.5,230.167 219.5,229.5C 220.492,229.672 221.158,229.338 221.5,228.5C 222.167,227.833 222.833,227.167 223.5,226.5C 223.833,227.833 224.167,227.833 224.5,226.5C 226.153,226.34 227.486,225.674 228.5,224.5C 229.167,223.833 229.833,223.167 230.5,222.5C 230.833,223.833 231.167,223.833 231.5,222.5C 234.331,221.921 236.664,220.588 238.5,218.5C 242.052,217.724 245.386,216.391 248.5,214.5C 249.228,212.709 250.228,212.042 251.5,212.5C 253.099,212.768 254.432,212.434 255.5,211.5C 256.151,210.909 256.818,210.243 257.5,209.5C 259.07,209.694 260.57,209.694 262,209.5C 262.308,208.692 262.808,208.025 263.5,207.5C 265.07,207.694 266.57,207.694 268,207.5C 268.928,205.665 270.094,205.332 271.5,206.5C 279.354,204.33 287.354,202.997 295.5,202.5C 296.5,202.5 297.5,202.5 298.5,202.5C 299.167,202.5 299.5,202.167 299.5,201.5 Z"/></g>
<g><path style="opacity:0.012" fill="#000000" d="M 345.5,203.5 C 346.833,204.167 346.833,204.167 345.5,203.5 Z"/></g>
<g><path style="opacity:0.008" fill="#160b0b" d="M 344.5,204.5 C 343.994,206.105 343.327,206.439 342.5,205.5C 342.842,204.662 343.508,204.328 344.5,204.5 Z"/></g>
<g><path style="opacity:0.008" fill="#000000" d="M 63.5,208.5 C 63.8333,208.5 64.1667,208.5 64.5,208.5C 64.3147,209.17 63.9813,209.17 63.5,208.5 Z"/></g>
<g><path style="opacity:0.006" fill="#161006" d="M 336.5,209.5 C 336.833,209.5 337.167,209.5 337.5,209.5C 336.828,210.267 335.995,210.934 335,211.5C 334.601,211.272 334.435,210.938 334.5,210.5C 334.842,209.662 335.508,209.328 336.5,209.5 Z"/></g>
<g><path style="opacity:0.004" fill="#140e03" d="M 146.5,211.5 C 147.623,210.243 148.289,210.576 148.5,212.5C 147.833,212.167 147.167,211.833 146.5,211.5 Z"/></g>
<g><path style="opacity:0.373" fill="#432f13" d="M 255.5,211.5 C 254.432,212.434 253.099,212.768 251.5,212.5C 252.531,211.751 253.698,211.085 255,210.5C 255.399,210.728 255.565,211.062 255.5,211.5 Z"/></g>
<g><path style="opacity:0.008" fill="#000000" d="M 71.5,213.5 C 71.8333,213.5 72.1667,213.5 72.5,213.5C 72.3147,214.17 71.9813,214.17 71.5,213.5 Z"/></g>
<g><path style="opacity:0.004" fill="#151003" d="M 153.5,214.5 C 154.623,213.243 155.289,213.576 155.5,215.5C 154.833,215.167 154.167,214.833 153.5,214.5 Z"/></g>
<g><path style="opacity:0.004" fill="#191205" d="M 328.5,214.5 C 328.833,214.5 329.167,214.5 329.5,214.5C 328.828,215.267 327.995,215.934 327,216.5C 326.601,216.272 326.435,215.938 326.5,215.5C 326.842,214.662 327.508,214.328 328.5,214.5 Z"/></g>
<g><path style="opacity:0.004" fill="#1a1306" d="M 74.5,215.5 C 74.8333,215.5 75.1667,215.5 75.5,215.5C 76.4916,215.328 77.1583,215.662 77.5,216.5C 77.5654,216.938 77.3988,217.272 77,217.5C 76.0053,216.934 75.172,216.267 74.5,215.5 Z"/></g>
<g><path style="opacity:0.006" fill="#161105" d="M 248.5,214.5 C 245.386,216.391 242.052,217.724 238.5,218.5C 241.276,216.608 244.276,214.941 247.5,213.5C 248.107,213.624 248.44,213.957 248.5,214.5 Z"/></g>
<g><path style="opacity:0.006" fill="#0c0a01" d="M 325.5,216.5 C 325.027,217.906 324.027,218.573 322.5,218.5C 322.973,217.094 323.973,216.427 325.5,216.5 Z"/></g>
<g><path style="opacity:0.169" fill="#5e4827" d="M 117.5,220.5 C 121.833,219.167 126.167,219.167 130.5,220.5C 127.482,220.335 124.482,220.502 121.5,221C 123.619,221.342 123.953,222.175 122.5,223.5C 120.255,223.459 119.588,222.625 120.5,221C 119.552,220.517 118.552,220.351 117.5,220.5 Z"/></g>
<g><path style="opacity:0.006" fill="#191005" d="M 238.5,218.5 C 236.664,220.588 234.331,221.921 231.5,222.5C 231.167,222.5 230.833,222.5 230.5,222.5C 232.849,220.659 235.515,219.326 238.5,218.5 Z"/></g>
<g><path style="opacity:0.145" fill="#2d2e2f" d="M 287.5,220.5 C 287.833,220.5 288.167,220.5 288.5,220.5C 289.853,221.867 289.519,222.867 287.5,223.5C 286.438,222.575 286.438,221.575 287.5,220.5 Z"/></g>
<g><path style="opacity:0.006" fill="#150600" d="M 173.5,223.5 C 173.167,223.5 172.833,223.5 172.5,223.5C 171.508,223.672 170.842,223.338 170.5,222.5C 170.435,222.062 170.601,221.728 171,221.5C 171.995,222.066 172.828,222.733 173.5,223.5 Z"/></g>
<g><path style="opacity:0.012" fill="#000000" d="M 122.5,223.5 C 123.833,224.167 123.833,224.167 122.5,223.5 Z"/></g>
<g><path style="opacity:0.004" fill="#1f1609" d="M 228.5,224.5 C 227.486,225.674 226.153,226.34 224.5,226.5C 224.167,226.5 223.833,226.5 223.5,226.5C 224.848,225.399 226.348,224.399 228,223.5C 228.399,223.728 228.565,224.062 228.5,224.5 Z"/></g>
<g><path style="opacity:0.006" fill="#110a04" d="M 180.5,227.5 C 180.167,227.5 179.833,227.5 179.5,227.5C 178.508,227.672 177.842,227.338 177.5,226.5C 177.435,226.062 177.601,225.728 178,225.5C 178.995,226.066 179.828,226.733 180.5,227.5 Z"/></g>
<g><path style="opacity:0.999" fill="#2c80a4" d="M 171.5,231.5 C 172.623,232.757 173.289,232.424 173.5,230.5C 174.167,230.833 174.833,231.167 175.5,231.5C 175.833,232.833 176.167,232.833 176.5,231.5C 177.167,231.833 177.833,232.167 178.5,232.5C 179.167,232.5 179.5,232.833 179.5,233.5C 179.833,233.5 180.167,233.5 180.5,233.5C 180.833,236.167 181.167,236.167 181.5,233.5C 182.167,233.833 182.833,234.167 183.5,234.5C 184.167,234.5 184.5,234.833 184.5,235.5C 184.833,235.5 185.167,235.5 185.5,235.5C 185.461,237.224 185.794,237.557 186.5,236.5C 186.833,236.5 187.167,236.5 187.5,236.5C 187.833,239.167 188.167,239.167 188.5,236.5C 189.167,236.833 189.833,237.167 190.5,237.5C 191.167,237.5 191.5,237.833 191.5,238.5C 191.833,238.5 192.167,238.5 192.5,238.5C 192.461,240.224 192.794,240.557 193.5,239.5C 193.833,239.5 194.167,239.5 194.5,239.5C 194.328,240.492 194.662,241.158 195.5,241.5C 195.5,242.167 195.833,242.5 196.5,242.5C 197.167,242.5 197.5,242.167 197.5,241.5C 197.833,241.5 198.167,241.5 198.5,241.5C 198.328,242.492 198.662,243.158 199.5,243.5C 200.514,244.674 201.847,245.34 203.5,245.5C 203.833,246.833 204.167,246.833 204.5,245.5C 207.105,243.724 209.438,242.39 211.5,241.5C 211.833,242.833 212.167,242.833 212.5,241.5C 214.153,241.34 215.486,240.674 216.5,239.5C 217.678,238.338 218.845,237.338 220,236.5C 221.016,237.634 221.683,237.301 222,235.5C 223.107,236.712 223.607,236.379 223.5,234.5C 224.492,234.672 225.158,234.338 225.5,233.5C 226.496,233.414 227.329,233.748 228,234.5C 228.464,233.906 228.631,233.239 228.5,232.5C 229.925,234.031 230.591,233.698 230.5,231.5C 231.496,231.414 232.329,231.748 233,232.5C 233.464,231.906 233.631,231.239 233.5,230.5C 235.196,232.129 236.196,231.796 236.5,229.5C 237.15,229.804 237.817,230.137 238.5,230.5C 241.748,229.355 245.081,228.521 248.5,228C 286.668,228.077 324.668,230.577 362.5,235.5C 326.77,240.711 290.77,244.878 254.5,248C 250.178,248.245 246.178,249.412 242.5,251.5C 241.914,251.291 241.414,250.957 241,250.5C 238.741,251.248 236.408,252.581 234,254.5C 233.617,253.944 233.117,253.611 232.5,253.5C 228.638,255.262 224.972,257.262 221.5,259.5C 217.935,262.963 213.935,265.963 209.5,268.5C 209.167,267.167 208.833,267.167 208.5,268.5C 207.167,268.833 207.167,269.167 208.5,269.5C 207.486,270.674 206.153,271.34 204.5,271.5C 204.167,270.167 203.833,270.167 203.5,271.5C 202.833,270.833 202.167,270.167 201.5,269.5C 201.167,268.167 200.833,268.167 200.5,269.5C 195.891,266.407 191.557,263.74 187.5,261.5C 186.035,260.263 184.368,259.263 182.5,258.5C 181.883,258.611 181.383,258.944 181,259.5C 179.333,258.167 177.667,256.833 176,255.5C 175.586,255.957 175.086,256.291 174.5,256.5C 173.23,255.438 172.063,254.438 171,253.5C 169.605,254.815 168.605,254.481 168,252.5C 166.403,252.64 164.903,252.64 163.5,252.5C 157.339,249.274 150.339,247.607 142.5,247.5C 107.167,246.833 71.8333,246.167 36.5,245.5C 66.4366,237.813 96.7699,231.98 127.5,228C 142.393,226.636 157.06,227.803 171.5,231.5 Z M 233.5,230.5 C 233.631,231.239 233.464,231.906 233,232.5C 232.329,231.748 231.496,231.414 230.5,231.5C 231.105,229.519 232.105,229.185 233.5,230.5 Z M 233.5,230.5 C 234.209,229.596 235.209,229.263 236.5,229.5C 236.196,231.796 235.196,232.129 233.5,230.5 Z M 173.5,230.5 C 173.289,232.424 172.623,232.757 171.5,231.5C 172.167,231.167 172.833,230.833 173.5,230.5 Z M 230.5,231.5 C 230.591,233.698 229.925,234.031 228.5,232.5C 228.409,230.302 229.075,229.969 230.5,231.5 Z M 228.5,232.5 C 228.631,233.239 228.464,233.906 228,234.5C 227.329,233.748 226.496,233.414 225.5,233.5C 225.369,232.761 225.536,232.094 226,231.5C 226.671,232.252 227.504,232.586 228.5,232.5 Z M 223.5,232.5 C 224.167,232.833 224.833,233.167 225.5,233.5C 225.158,234.338 224.492,234.672 223.5,234.5C 223.5,233.833 223.5,233.167 223.5,232.5 Z"/></g>
<g><path style="opacity:0.063" fill="#271f0b" d="M 221.5,228.5 C 221.158,229.338 220.492,229.672 219.5,229.5C 219.167,229.5 218.833,229.5 218.5,229.5C 219.172,228.733 220.005,228.066 221,227.5C 221.399,227.728 221.565,228.062 221.5,228.5 Z"/></g>
<g><path style="opacity:0.007" fill="#1e1609" d="M 218.5,229.5 C 218.5,229.833 218.5,230.167 218.5,230.5C 217.486,231.674 216.153,232.34 214.5,232.5C 215.436,231.026 216.77,230.026 218.5,229.5 Z"/></g>
<g><path style="opacity:0.006" fill="#1e1709" d="M 188.5,232.5 C 188.167,232.5 187.833,232.5 187.5,232.5C 186.508,232.672 185.842,232.338 185.5,231.5C 185.435,231.062 185.601,230.728 186,230.5C 186.995,231.066 187.828,231.733 188.5,232.5 Z"/></g>
<g><path style="opacity:0.004" fill="#1c0f07" d="M 223.5,232.5 C 223.5,233.167 223.5,233.833 223.5,234.5C 222.508,234.672 221.842,234.338 221.5,233.5C 222.167,233.167 222.833,232.833 223.5,232.5 Z"/></g>
<g><path style="opacity:0.004" fill="#000000" d="M 362.5,234.5 C 363.833,235.167 363.833,235.167 362.5,234.5 Z"/></g>
<g><path style="opacity:0.035" fill="#201211" d="M 210.5,235.5 C 210.158,236.338 209.492,236.672 208.5,236.5C 209.006,234.895 209.673,234.561 210.5,235.5 Z"/></g>
<g><path style="opacity:0.006" fill="#21180a" d="M 197.5,238.5 C 197.167,238.5 196.833,238.5 196.5,238.5C 195.508,238.672 194.842,238.338 194.5,237.5C 194.435,237.062 194.601,236.728 195,236.5C 195.995,237.066 196.828,237.733 197.5,238.5 Z"/></g>
<g><path style="opacity:0.008" fill="#21180b" d="M 205.5,238.5 C 205.167,239.167 204.833,239.833 204.5,240.5C 204.631,241.376 204.298,242.043 203.5,242.5C 202.059,240.167 202.725,238.834 205.5,238.5 Z"/></g>
<g><path style="opacity:0.004" fill="#141103" d="M 213.5,237.5 C 211.684,239.441 209.684,240.108 207.5,239.5C 209.297,238.27 211.297,237.604 213.5,237.5 Z"/></g>
<g><path style="opacity:0.2" fill="#624b1b" d="M 197.5,238.5 C 198.906,238.973 199.573,239.973 199.5,241.5C 199.167,241.5 198.833,241.5 198.5,241.5C 198.167,241.5 197.833,241.5 197.5,241.5C 196.794,240.443 196.461,240.776 196.5,242.5C 195.833,242.5 195.5,242.167 195.5,241.5C 195.5,240.833 195.5,240.167 195.5,239.5C 195.833,239.5 196.167,239.5 196.5,239.5C 197.167,239.5 197.5,239.167 197.5,238.5 Z"/></g>
<g><path style="opacity:0.004" fill="#091013" d="M 216.5,239.5 C 215.486,240.674 214.153,241.34 212.5,241.5C 212.167,241.5 211.833,241.5 211.5,241.5C 212.848,240.399 214.348,239.399 216,238.5C 216.399,238.728 216.565,239.062 216.5,239.5 Z"/></g>
<g><path style="opacity:0.009" fill="#010405" d="M 199.5,241.5 C 200.984,243.074 202.651,244.407 204.5,245.5C 204.167,245.5 203.833,245.5 203.5,245.5C 201.847,245.34 200.514,244.674 199.5,243.5C 199.5,242.833 199.5,242.167 199.5,241.5 Z"/></g>
<g><path style="opacity:0.004" fill="#000000" d="M 31.5,246.5 C 30.8333,245.167 30.8333,245.167 31.5,246.5 Z"/></g>
<g><path style="opacity:0.553" fill="#1e566f" d="M 36.5,245.5 C 71.8333,246.167 107.167,246.833 142.5,247.5C 105.33,247.832 68.3296,247.498 31.5,246.5C 33.1172,245.962 34.7839,245.629 36.5,245.5 Z"/></g>
<g><path style="opacity:0.005" fill="#050c10" d="M 232.5,253.5 C 232.631,254.376 232.298,255.043 231.5,255.5C 228.254,257.039 225.088,258.706 222,260.5C 221.601,260.272 221.435,259.938 221.5,259.5C 224.972,257.262 228.638,255.262 232.5,253.5 Z"/></g>
<g><path style="opacity:0.006" fill="#010a0d" d="M 182.5,258.5 C 184.368,259.263 186.035,260.263 187.5,261.5C 187.565,261.938 187.399,262.272 187,262.5C 184.882,261.717 183.382,260.384 182.5,258.5 Z"/></g>
<g><path style="opacity:0.008" fill="#000000" d="M 208.5,268.5 C 208.833,268.5 209.167,268.5 209.5,268.5C 209.315,269.17 208.981,269.17 208.5,268.5 Z"/></g>
<g><path style="opacity:0.008" fill="#000000" d="M 200.5,269.5 C 200.833,269.5 201.167,269.5 201.5,269.5C 201.315,270.17 200.981,270.17 200.5,269.5 Z"/></g>
<g><path style="opacity:0.004" fill="#000000" d="M 203.5,271.5 C 203.833,271.5 204.167,271.5 204.5,271.5C 204.315,272.17 203.981,272.17 203.5,271.5 Z"/></g>
<g><path style="opacity:0.999" fill="#2c7ea1" d="M 159.5,297.5 C 157.833,297.5 156.167,297.5 154.5,297.5C 154.5,305.5 154.5,313.5 154.5,321.5C 150.233,321.203 146.066,321.536 142,322.5C 141.335,314.144 141.501,305.811 142.5,297.5C 141.167,297.5 139.833,297.5 138.5,297.5C 138.789,293.894 138.456,290.394 137.5,287C 139.134,286.506 140.801,286.34 142.5,286.5C 142.784,284.123 142.784,281.956 142.5,280C 144.455,279.047 146.122,277.713 147.5,276C 147.167,275.667 146.833,275.333 146.5,275C 150.788,274.222 155.288,273.389 160,272.5C 159.488,276.388 159.654,280.221 160.5,284C 158.956,284.29 157.623,284.956 156.5,286C 157.536,287.617 158.703,287.784 160,286.5C 160.45,290.188 160.283,293.854 159.5,297.5 Z"/></g>
<g><path style="opacity:0.004" fill="#000000" d="M 345.5,277.5 C 344.833,276.167 344.833,276.167 345.5,277.5 Z"/></g>
<g><path style="opacity:1" fill="#2d82a5" d="M 79.5,319.5 C 78.7784,319.918 78.2784,320.584 78,321.5C 74.1974,321.466 70.3641,321.466 66.5,321.5C 65.5,321 64.5,320.5 63.5,320C 63.7914,318.042 62.7914,316.542 60.5,315.5C 60.2041,313.597 59.5375,311.93 58.5,310.5C 57.4701,304.798 57.4701,299.298 58.5,294C 59.0659,293.005 59.7326,292.172 60.5,291.5C 60.8333,292.833 61.1667,292.833 61.5,291.5C 62.8333,290.833 63.8333,289.833 64.5,288.5C 65.2216,288.082 65.7216,287.416 66,286.5C 66.3333,286.833 66.6667,287.167 67,287.5C 68.7849,286.76 70.6183,286.093 72.5,285.5C 74.0421,286.747 75.5421,286.747 77,285.5C 78.1036,286.394 79.2702,287.394 80.5,288.5C 80.7828,289.289 81.2828,289.956 82,290.5C 82.4992,285.845 82.6658,281.179 82.5,276.5C 86.1667,276.5 89.8333,276.5 93.5,276.5C 93.5,291.167 93.5,305.833 93.5,320.5C 89.8333,320.5 86.1667,320.5 82.5,320.5C 82.8529,315.522 81.8529,315.188 79.5,319.5 Z M 78.5,298.5 C 78.5,299.167 78.8333,299.5 79.5,299.5C 82.4531,304.753 81.2864,308.42 76,310.5C 70.5815,308.115 69.4148,304.448 72.5,299.5C 74.2492,297.469 76.2492,297.135 78.5,298.5 Z"/></g>
<g><path style="opacity:0.008" fill="#000000" d="M 281.5,278.5 C 280.833,277.167 280.833,277.167 281.5,278.5 Z"/></g>
<g><path style="opacity:1" fill="#e8a62b" d="M 281.5,278.5 C 286.167,278.5 290.833,278.5 295.5,278.5C 295.5,287.167 295.5,295.833 295.5,304.5C 296.833,304.5 298.167,304.5 299.5,304.5C 299.5,308.167 299.5,311.833 299.5,315.5C 297.833,315.5 296.167,315.5 294.5,315.5C 294.5,317.833 294.5,320.167 294.5,322.5C 290.5,322.5 286.5,322.5 282.5,322.5C 282.5,320.167 282.5,317.833 282.5,315.5C 275.91,315.189 269.41,315.522 263,316.5C 262.238,312.413 262.404,308.413 263.5,304.5C 264.338,304.158 264.672,303.492 264.5,302.5C 265.833,302.167 265.833,301.833 264.5,301.5C 265.833,300.167 267.167,298.833 268.5,297.5C 269.338,297.158 269.672,296.492 269.5,295.5C 270.833,295.167 270.833,294.833 269.5,294.5C 270.438,291.843 272.438,289.51 275.5,287.5C 276.338,287.158 276.672,286.492 276.5,285.5C 277.833,285.167 277.833,284.833 276.5,284.5C 278.167,282.5 279.833,280.5 281.5,278.5 Z M 279.5,300.5 C 280.833,300.167 280.833,299.833 279.5,299.5C 280.167,298.833 280.833,298.167 281.5,297.5C 282.833,297.167 282.833,296.833 281.5,296.5C 281.987,295.527 282.487,294.527 283,293.5C 283.499,297.152 283.665,300.818 283.5,304.5C 281.143,304.663 278.81,304.497 276.5,304C 277.338,302.845 278.338,301.678 279.5,300.5 Z"/></g>
<g><path style="opacity:1" fill="#f3ae2d" d="M 345.5,277.5 C 349.5,277.5 353.5,277.5 357.5,277.5C 357.5,292.5 357.5,307.5 357.5,322.5C 353.5,322.5 349.5,322.5 345.5,322.5C 345.5,318.5 345.5,314.5 345.5,310.5C 345.5,299.5 345.5,288.5 345.5,277.5 Z"/></g>
<g><path style="opacity:1" fill="#f2ad2c" d="M 363.5,278.5 C 367.5,278.5 371.5,278.5 375.5,278.5C 375.5,288.167 375.5,297.833 375.5,307.5C 375.5,312.833 375.5,318.167 375.5,323.5C 371.5,323.5 367.5,323.5 363.5,323.5C 363.5,308.5 363.5,293.5 363.5,278.5 Z"/></g>
<g><path style="opacity:0.016" fill="#000000" d="M 163.5,287.5 C 162.833,286.167 162.833,286.167 163.5,287.5 Z"/></g>
<g><path style="opacity:0.02" fill="#000000" d="M 175.5,286.5 C 176.833,287.167 176.833,287.167 175.5,286.5 Z"/></g>
<g><path style="opacity:0.235" fill="#433113" d="M 276.5,284.5 C 276.5,284.833 276.5,285.167 276.5,285.5C 276.672,286.492 276.338,287.158 275.5,287.5C 275.062,287.565 274.728,287.399 274.5,287C 275.066,286.005 275.733,285.172 276.5,284.5 Z"/></g>
<g><path style="opacity:0.998" fill="#2c7d9f" d="M 49.5,289.5 C 50.1667,290.833 51.1667,291.833 52.5,292.5C 53.6619,293.678 54.6619,294.845 55.5,296C 55.3416,299.288 55.3416,302.788 55.5,306.5C 48.1365,306.169 40.8032,306.503 33.5,307.5C 34.2427,308.182 34.9094,308.849 35.5,309.5C 34.1667,309.833 34.1667,310.167 35.5,310.5C 37.4547,311.93 39.1214,311.597 40.5,309.5C 40.369,308.761 40.5357,308.094 41,307.5C 45.4014,308.467 49.9014,308.8 54.5,308.5C 54.4142,309.496 54.7476,310.329 55.5,311C 54.6619,312.155 53.6619,313.322 52.5,314.5C 51.1667,314.833 51.1667,315.167 52.5,315.5C 51.8333,316.833 50.8333,317.833 49.5,318.5C 49.1667,317.167 48.8333,317.167 48.5,318.5C 47.2551,319.602 45.9217,320.602 44.5,321.5C 39.0533,321.651 33.72,321.151 28.5,320C 27.5138,317.672 25.5138,315.672 22.5,314C 23.6341,312.984 23.3008,312.317 21.5,312C 21.8333,311.667 22.1667,311.333 22.5,311C 19.9609,306.015 19.9609,301.015 22.5,296C 22.7133,292.315 25.0467,289.149 29.5,286.5C 30.086,286.709 30.586,287.043 31,287.5C 35.5751,285.513 40.2418,284.846 45,285.5C 46.6203,286.06 48.1203,287.393 49.5,289.5 Z M 40.5,296.5 C 41.404,297.209 41.7373,298.209 41.5,299.5C 38.3467,299.843 36.0134,299.51 34.5,298.5C 36.6078,297.056 38.6078,296.389 40.5,296.5 Z"/></g>
<g><path style="opacity:0.004" fill="#000000" d="M 339.5,287.5 C 340.833,288.167 340.833,288.167 339.5,287.5 Z"/></g>
<g><path style="opacity:0.999" fill="#2d83a8" d="M 112.5,307.5 C 114.124,308.62 115.624,309.953 117,311.5C 119.363,310.298 121.197,308.632 122.5,306.5C 123.49,300.355 123.823,294.022 123.5,287.5C 127.167,287.5 130.833,287.5 134.5,287.5C 134.5,298.833 134.5,310.167 134.5,321.5C 130.5,321.5 126.5,321.5 122.5,321.5C 122.672,320.508 122.338,319.842 121.5,319.5C 121.167,318.167 120.833,318.167 120.5,319.5C 119.778,319.918 119.278,320.584 119,321.5C 114.701,321.542 110.201,321.375 105.5,321C 101.183,318.476 99.5163,314.976 100.5,310.5C 100.5,302.833 100.5,295.167 100.5,287.5C 104.167,287.5 107.833,287.5 111.5,287.5C 111.176,294.354 111.509,301.021 112.5,307.5 Z"/></g>
<g><path style="opacity:0.998" fill="#2d84a8" d="M 186.5,300.5 C 182.115,299.794 178.615,301.127 176,304.5C 175.193,310.416 175.359,316.25 176.5,322C 172.489,321.986 168.156,321.819 163.5,321.5C 163.5,310.167 163.5,298.833 163.5,287.5C 167.5,287.5 171.5,287.5 175.5,287.5C 174.812,292.242 175.812,293.075 178.5,290C 178.167,289.667 177.833,289.333 177.5,289C 178.76,287.887 179.927,287.72 181,288.5C 181.333,287.833 181.667,287.167 182,286.5C 183.722,286.962 185.555,287.128 187.5,287C 186.533,291.401 186.2,295.901 186.5,300.5 Z"/></g>
<g><path style="opacity:0.008" fill="#0c1518" d="M 199.5,287.5 C 196.574,289.084 193.908,291.084 191.5,293.5C 191.167,293.5 190.833,293.5 190.5,293.5C 192.435,289.897 195.435,287.897 199.5,287.5 Z"/></g>
<g><path style="opacity:0.996" fill="#2b7c9e" d="M 219.5,292.5 C 218.167,292.833 218.167,293.167 219.5,293.5C 220.662,294.678 221.662,295.845 222.5,297C 222.342,300.288 222.342,303.788 222.5,307.5C 215.137,307.169 207.803,307.503 200.5,308.5C 202.169,309.671 203.669,311.004 205,312.5C 206.169,311.991 207.002,311.158 207.5,310C 212.5,309.333 217.5,309.333 222.5,310C 221.12,311.324 220.786,312.657 221.5,314C 219.674,317.164 216.84,319.998 213,322.5C 208,322.5 203,322.5 198,322.5C 196.304,322.013 194.804,320.68 193.5,318.5C 192.992,316.767 192.159,316.434 191,317.5C 189.7,314.025 188.533,309.858 187.5,305C 187.861,302.551 188.528,300.218 189.5,298C 188.447,296.251 188.78,294.751 190.5,293.5C 190.833,294.833 191.167,294.833 191.5,293.5C 193.908,291.084 196.574,289.084 199.5,287.5C 204.34,286.586 209.007,286.586 213.5,287.5C 215.175,290.235 217.175,291.902 219.5,292.5 Z M 207.5,298.5 C 207.5,299.167 207.833,299.5 208.5,299.5C 206.034,300.634 203.367,300.801 200.5,300C 201.667,299.5 202.5,298.667 203,297.5C 204.429,297.47 205.929,297.803 207.5,298.5 Z"/></g>
<g><path style="opacity:0.999" fill="#2c7c9f" d="M 242.5,312.5 C 247.578,310.668 252.911,310.002 258.5,310.5C 259.953,311.825 259.619,312.658 257.5,313C 257.5,314 257.5,315 257.5,316C 256.295,317.376 254.962,318.542 253.5,319.5C 251.181,319.992 249.181,320.992 247.5,322.5C 242.985,322.346 238.652,322.346 234.5,322.5C 229.507,320.128 226.84,316.961 226.5,313C 225.148,310.706 224.481,308.206 224.5,305.5C 225.077,303.191 225.077,301.024 224.5,299C 226.125,298.147 226.458,297.147 225.5,296C 227.359,292.655 230.359,289.821 234.5,287.5C 239.5,287.5 244.5,287.5 249.5,287.5C 252.488,288.923 255.321,291.256 258,294.5C 258.617,295.449 258.451,296.282 257.5,297C 258.167,297.333 258.833,297.667 259.5,298C 259.382,301.03 259.215,304.197 259,307.5C 251.92,307.705 244.753,307.871 237.5,308C 238.224,310.67 239.891,312.17 242.5,312.5 Z M 239.5,297.5 C 242.607,297.174 244.94,298.341 246.5,301C 243.446,301.821 240.446,301.655 237.5,300.5C 238.612,299.735 239.279,298.735 239.5,297.5 Z"/></g>
<g><path style="opacity:0.122" fill="#111c25" d="M 52.5,292.5 C 51.1667,291.833 50.1667,290.833 49.5,289.5C 49.4346,289.062 49.6012,288.728 50,288.5C 51.1667,289.667 52.3333,290.833 53.5,292C 53.2716,292.399 52.9382,292.565 52.5,292.5 Z"/></g>
<g><path style="opacity:0.039" fill="#413315" d="M 313.5,288.5 C 311.544,289.492 309.544,290.492 307.5,291.5C 308.953,288.769 310.953,287.769 313.5,288.5 Z"/></g>
<g><path style="opacity:1" fill="#eaa72b" d="M 325.5,290.5 C 325.5,291.167 325.833,291.5 326.5,291.5C 327.507,291.548 327.84,290.548 327.5,288.5C 331.167,288.5 334.833,288.5 338.5,288.5C 338.5,299.833 338.5,311.167 338.5,322.5C 334.5,322.5 330.5,322.5 326.5,322.5C 326.565,322.062 326.399,321.728 326,321.5C 325.25,322.126 324.416,322.626 323.5,323C 319.467,323.35 315.633,323.517 312,323.5C 310.845,322.662 309.678,321.662 308.5,320.5C 307.992,318.767 307.159,318.434 306,319.5C 304.887,318.24 304.72,317.073 305.5,316C 303.699,315.683 303.366,315.016 304.5,314C 303.833,313.667 303.167,313.333 302.5,313C 302.5,308.333 302.5,303.667 302.5,299C 303.636,297.47 304.636,296.137 305.5,295C 304.828,293.421 305.495,292.254 307.5,291.5C 309.544,290.492 311.544,289.492 313.5,288.5C 318.312,287.074 322.312,287.741 325.5,290.5 Z M 325.5,301.5 C 325.062,301.435 324.728,301.601 324.5,302C 326.195,304.212 326.861,306.379 326.5,308.5C 324.653,309.687 322.82,311.021 321,312.5C 319.901,310.838 318.734,310.172 317.5,310.5C 317.5,309.167 316.833,308.5 315.5,308.5C 315.185,305.789 315.852,303.456 317.5,301.5C 318.167,301.5 318.5,301.167 318.5,300.5C 321.216,298.914 323.55,299.247 325.5,301.5 Z"/></g>
<g><path style="opacity:0.114" fill="#352609" d="M 327.5,288.5 C 327.84,290.548 327.507,291.548 326.5,291.5C 325.833,291.5 325.5,291.167 325.5,290.5C 325.987,289.527 326.487,288.527 327,287.5C 327.399,287.728 327.565,288.062 327.5,288.5 Z"/></g>
<g><path style="opacity:0.082" fill="#111d23" d="M 64.5,288.5 C 63.8333,289.833 62.8333,290.833 61.5,291.5C 61.1667,291.5 60.8333,291.5 60.5,291.5C 61.5375,289.372 62.8708,288.372 64.5,288.5 Z"/></g>
<g><path style="opacity:0.49" fill="#174457" d="M 112.5,307.5 C 111.509,301.021 111.176,294.354 111.5,287.5C 107.833,287.5 104.167,287.5 100.5,287.5C 100.5,295.167 100.5,302.833 100.5,310.5C 99.5076,302.684 99.1743,294.684 99.5,286.5C 103.833,286.5 108.167,286.5 112.5,286.5C 112.564,293.808 112.564,300.808 112.5,307.5 Z"/></g>
<g><path style="opacity:0.012" fill="#000000" d="M 219.5,292.5 C 220.833,293.167 220.833,293.167 219.5,292.5 Z"/></g>
<g><path style="opacity:0.029" fill="#35270a" d="M 363.5,278.5 C 367.634,277.515 371.968,277.182 376.5,277.5C 376.827,287.681 376.494,297.681 375.5,307.5C 375.5,297.833 375.5,288.167 375.5,278.5C 371.5,278.5 367.5,278.5 363.5,278.5 Z"/></g>
<g><path style="opacity:0.006" fill="#0a1015" d="M 40.5,296.5 C 38.6078,296.389 36.6078,297.056 34.5,298.5C 34.5774,297.25 35.244,296.417 36.5,296C 38.0657,295.235 39.3991,295.402 40.5,296.5 Z"/></g>
<g><path style="opacity:0.323" fill="#184659" d="M 79.5,319.5 C 81.8529,315.188 82.8529,315.522 82.5,320.5C 86.1667,320.5 89.8333,320.5 93.5,320.5C 93.5,305.833 93.5,291.167 93.5,276.5C 89.8333,276.5 86.1667,276.5 82.5,276.5C 82.6658,281.179 82.4992,285.845 82,290.5C 81.2828,289.956 80.7828,289.289 80.5,288.5C 81.4849,284.366 81.8182,280.032 81.5,275.5C 85.8333,275.5 90.1667,275.5 94.5,275.5C 94.5,290.833 94.5,306.167 94.5,321.5C 88.8307,321.851 83.8307,321.184 79.5,319.5 Z"/></g>
<g><path style="opacity:0.247" fill="#483414" d="M 269.5,294.5 C 269.5,294.833 269.5,295.167 269.5,295.5C 269.672,296.492 269.338,297.158 268.5,297.5C 268.062,297.565 267.728,297.399 267.5,297C 268.066,296.005 268.733,295.172 269.5,294.5 Z"/></g>
<g><path style="opacity:0.004" fill="#000000" d="M 138.5,297.5 C 137.833,298.167 137.833,298.167 138.5,297.5 Z"/></g>
<g><path style="opacity:0.02" fill="#000000" d="M 159.5,297.5 C 160.833,298.167 160.833,298.167 159.5,297.5 Z"/></g>
<g><path style="opacity:0.004" fill="#000000" d="M 186.5,300.5 C 187.833,301.167 187.833,301.167 186.5,300.5 Z"/></g>
<g><path style="opacity:0.149" fill="#34260f" d="M 264.5,301.5 C 264.5,301.833 264.5,302.167 264.5,302.5C 264.672,303.492 264.338,304.158 263.5,304.5C 263.062,304.565 262.728,304.399 262.5,304C 263.066,303.005 263.733,302.172 264.5,301.5 Z"/></g>
<g><path style="opacity:0.004" fill="#000000" d="M 299.5,303.5 C 300.833,304.167 300.833,304.167 299.5,303.5 Z"/></g>
<g><path style="opacity:0.116" fill="#123343" d="M 134.5,321.5 C 134.5,310.167 134.5,298.833 134.5,287.5C 130.833,287.5 127.167,287.5 123.5,287.5C 123.823,294.022 123.49,300.355 122.5,306.5C 122.5,299.833 122.5,293.167 122.5,286.5C 126.833,286.5 131.167,286.5 135.5,286.5C 135.832,298.915 135.499,310.582 134.5,321.5 Z"/></g>
<g><path style="opacity:0.251" fill="#624618" d="M 325.5,301.5 C 327.534,303.655 327.867,305.988 326.5,308.5C 326.861,306.379 326.195,304.212 324.5,302C 324.728,301.601 325.062,301.435 325.5,301.5 Z"/></g>
<g><path style="opacity:0.251" fill="#745114" d="M 338.5,288.5 C 338.833,288.5 339.167,288.5 339.5,288.5C 339.5,300.167 339.5,311.833 339.5,323.5C 334.968,323.818 330.634,323.485 326.5,322.5C 330.5,322.5 334.5,322.5 338.5,322.5C 338.5,311.167 338.5,299.833 338.5,288.5 Z"/></g>
<g><path style="opacity:0.004" fill="#000000" d="M 54.5,307.5 C 55.8333,308.167 55.8333,308.167 54.5,307.5 Z"/></g>
<g><path style="opacity:0.004" fill="#000000" d="M 222.5,307.5 C 223.833,308.167 223.833,308.167 222.5,307.5 Z"/></g>
<g><path style="opacity:0.004" fill="#0d0c00" d="M 315.5,308.5 C 316.833,308.5 317.5,309.167 317.5,310.5C 316.5,310.167 315.833,309.5 315.5,308.5 Z"/></g>
<g><path style="opacity:0.043" fill="#12191e" d="M 258.5,310.5 C 252.911,310.002 247.578,310.668 242.5,312.5C 242.953,311.542 243.619,310.708 244.5,310C 249.928,309.189 254.595,309.356 258.5,310.5 Z"/></g>
<g><path style="opacity:0.051" fill="#101a21" d="M 35.5,309.5 C 37.0992,310.562 38.7659,310.562 40.5,309.5C 39.1214,311.597 37.4547,311.93 35.5,310.5C 35.5,310.167 35.5,309.833 35.5,309.5 Z"/></g>
<g><path style="opacity:0.005" fill="#0a1517" d="M 58.5,310.5 C 59.5375,311.93 60.2041,313.597 60.5,315.5C 59.0527,314.378 58.0527,312.878 57.5,311C 57.7284,310.601 58.0618,310.435 58.5,310.5 Z"/></g>
<g><path style="opacity:0.012" fill="#000000" d="M 52.5,314.5 C 53.8333,315.167 53.8333,315.167 52.5,314.5 Z"/></g>
<g><path style="opacity:0.004" fill="#000000" d="M 299.5,315.5 C 300.833,316.167 300.833,316.167 299.5,315.5 Z"/></g>
<g><path style="opacity:0.008" fill="#000000" d="M 48.5,318.5 C 48.8333,318.5 49.1667,318.5 49.5,318.5C 49.3147,319.17 48.9813,319.17 48.5,318.5 Z"/></g>
<g><path style="opacity:0.012" fill="#000000" d="M 193.5,318.5 C 192.833,319.167 192.833,319.167 193.5,318.5 Z"/></g>
<g><path style="opacity:0.008" fill="#000000" d="M 120.5,319.5 C 120.833,319.5 121.167,319.5 121.5,319.5C 121.315,320.17 120.981,320.17 120.5,319.5 Z"/></g>
<g><path style="opacity:0.007" fill="#04080d" d="M 253.5,319.5 C 252.089,321.539 250.089,322.539 247.5,322.5C 249.181,320.992 251.181,319.992 253.5,319.5 Z"/></g>
<g><path style="opacity:0.008" fill="#000000" d="M 308.5,320.5 C 307.833,321.167 307.833,321.167 308.5,320.5 Z"/></g>
<g><path style="opacity:0.004" fill="#000000" d="M 122.5,321.5 C 121.833,322.167 121.833,322.167 122.5,321.5 Z"/></g>
<g><path style="opacity:0.004" fill="#000000" d="M 154.5,321.5 C 155.833,322.167 155.833,322.167 154.5,321.5 Z"/></g>
<g><path style="opacity:0.02" fill="#000000" d="M 163.5,321.5 C 162.833,322.167 162.833,322.167 163.5,321.5 Z"/></g>
<g><path style="opacity:0.016" fill="#000000" d="M 282.5,322.5 C 281.833,323.167 281.833,323.167 282.5,322.5 Z"/></g>
<g><path style="opacity:0.02" fill="#000000" d="M 294.5,322.5 C 295.833,323.167 295.833,323.167 294.5,322.5 Z"/></g>
<g><path style="opacity:0.208" fill="#543e0f" d="M 345.5,310.5 C 345.5,314.5 345.5,318.5 345.5,322.5C 349.5,322.5 353.5,322.5 357.5,322.5C 353.366,323.485 349.032,323.818 344.5,323.5C 344.182,318.968 344.515,314.634 345.5,310.5 Z"/></g>
<g><path style="opacity:0.004" fill="#000000" d="M 375.5,323.5 C 376.833,324.167 376.833,324.167 375.5,323.5 Z"/></g>
</svg>
