<?xml version="1.0" encoding="UTF-8"?>
<!DOCTYPE svg PUBLIC "-//W3C//DTD SVG 1.1//EN" "http://www.w3.org/Graphics/SVG/1.1/DTD/svg11.dtd">
<svg xmlns="http://www.w3.org/2000/svg" version="1.1" width="400px" height="400px" style="shape-rendering:geometricPrecision; text-rendering:geometricPrecision; image-rendering:optimizeQuality; fill-rule:evenodd; clip-rule:evenodd" xmlns:xlink="http://www.w3.org/1999/xlink">
<g><path style="opacity:0.016" fill="#000000" d="M 250.5,131.5 C 249.833,130.167 249.833,130.167 250.5,131.5 Z"/></g>
<g><path style="opacity:0.012" fill="#000000" d="M 286.5,130.5 C 287.833,131.167 287.833,131.167 286.5,130.5 Z"/></g>
<g><path style="opacity:0.008" fill="#000000" d="M 342.5,130.5 C 343.833,131.167 343.833,131.167 342.5,130.5 Z"/></g>
<g><path style="opacity:0.776" fill="#e1b34e" d="M 250.5,131.5 C 262.5,131.5 274.5,131.5 286.5,131.5C 286.5,176.5 286.5,221.5 286.5,266.5C 274.5,266.5 262.5,266.5 250.5,266.5C 250.5,221.5 250.5,176.5 250.5,131.5 Z"/></g>
<g><path style="opacity:1" fill="#f6ae2c" d="M 251.5,132.5 C 262.833,132.5 274.167,132.5 285.5,132.5C 285.5,176.833 285.5,221.167 285.5,265.5C 274.167,265.5 262.833,265.5 251.5,265.5C 251.5,221.167 251.5,176.833 251.5,132.5 Z"/></g>
<g><path style="opacity:0.557" fill="#987744" d="M 306.5,131.5 C 306.168,176.336 306.501,221.003 307.5,265.5C 318.833,265.5 330.167,265.5 341.5,265.5C 341.5,221.167 341.5,176.833 341.5,132.5C 341.5,132.167 341.5,131.833 341.5,131.5C 341.833,131.5 342.167,131.5 342.5,131.5C 342.5,176.5 342.5,221.5 342.5,266.5C 330.253,266.178 318.086,266.512 306,267.5C 305.17,221.429 305.336,176.096 306.5,131.5 Z"/></g>
<g><path style="opacity:1" fill="#f6ae2c" d="M 341.5,132.5 C 341.5,176.833 341.5,221.167 341.5,265.5C 330.167,265.5 318.833,265.5 307.5,265.5C 307.5,221.167 307.5,176.833 307.5,132.5C 318.833,132.5 330.167,132.5 341.5,132.5 Z"/></g>
<g><path style="opacity:0.969" fill="#fad758" d="M 306.5,131.5 C 318.167,131.5 329.833,131.5 341.5,131.5C 341.5,131.833 341.5,132.167 341.5,132.5C 330.167,132.5 318.833,132.5 307.5,132.5C 307.5,176.833 307.5,221.167 307.5,265.5C 306.501,221.003 306.168,176.336 306.5,131.5 Z"/></g>
<g><path style="opacity:0.063" fill="#47392b" d="M 96.5,135.5 C 96.1667,135.5 95.8333,135.5 95.5,135.5C 82.0875,135.186 68.7541,135.519 55.5,136.5C 54.2875,135.503 54.4542,134.503 56,133.5C 70.168,134.142 83.668,134.809 96.5,135.5 Z"/></g>
<g><path style="opacity:1" fill="#f4ae2e" d="M 95.5,135.5 C 95.5,161.5 95.5,187.5 95.5,213.5C 100.167,213.5 104.833,213.5 109.5,213.5C 109.5,223.833 109.5,234.167 109.5,244.5C 105.167,244.5 100.833,244.5 96.5,244.5C 95.5088,251.313 95.1755,258.313 95.5,265.5C 83.8333,265.5 72.1667,265.5 60.5,265.5C 60.8245,258.313 60.4912,251.313 59.5,244.5C 39.8333,244.5 20.1667,244.5 0.5,244.5C 0.333518,234.494 0.500185,224.494 1,214.5C 3.23837,212.396 4.23837,210.062 4,207.5C 5.15902,208.566 5.99236,208.233 6.5,206.5C 7.16667,206.5 7.5,206.167 7.5,205.5C 7.9528,204.542 8.61947,203.708 9.5,203C 8.16686,201.16 8.33353,200.66 10,201.5C 11.2837,200.428 11.6171,199.095 11,197.5C 11.9138,198.654 12.7471,198.487 13.5,197C 12.1669,195.16 12.3335,194.66 14,195.5C 14.7172,194.956 15.2172,194.289 15.5,193.5C 16.1667,193.5 16.5,193.167 16.5,192.5C 16.5,192.167 16.5,191.833 16.5,191.5C 18.5084,190.699 19.0084,189.366 18,187.5C 18.9138,188.654 19.7471,188.487 20.5,187C 19.1669,185.16 19.3335,184.66 21,185.5C 23.541,183.091 24.8743,180.424 25,177.5C 26.159,178.566 26.9924,178.233 27.5,176.5C 28.1667,176.5 28.5,176.167 28.5,175.5C 30.6628,172.972 31.8295,170.306 32,167.5C 32.9138,168.654 33.7471,168.487 34.5,167C 33.1669,165.16 33.3335,164.66 35,165.5C 36.9756,164.457 37.4756,163.123 36.5,161.5C 37.5294,161.704 38.5294,161.204 39.5,160C 38.1669,158.16 38.3335,157.66 40,158.5C 41.2837,157.428 41.6171,156.095 41,154.5C 42.1475,155.458 43.1475,155.125 44,153.5C 44.4652,152.069 45.2986,150.903 46.5,150C 45.1669,148.16 45.3335,147.66 47,148.5C 49.541,146.091 50.8743,143.424 51,140.5C 51.9138,141.654 52.7471,141.487 53.5,140C 52.1669,138.16 52.3335,137.66 54,138.5C 54.7172,137.956 55.2172,137.289 55.5,136.5C 68.7541,135.519 82.0875,135.186 95.5,135.5 Z M 62.5,212.5 C 54.6484,212.825 46.9818,212.492 39.5,211.5C 39.5,210.833 39.8333,210.5 40.5,210.5C 40.8333,211.833 41.1667,211.833 41.5,210.5C 42.3382,210.158 42.6716,209.492 42.5,208.5C 43.1667,208.5 43.5,208.167 43.5,207.5C 44.3382,207.158 44.6716,206.492 44.5,205.5C 45.1667,205.5 45.5,205.167 45.5,204.5C 46.3382,204.158 46.6716,203.492 46.5,202.5C 47.1667,202.5 47.5,202.167 47.5,201.5C 48.3382,201.158 48.6716,200.492 48.5,199.5C 49.1667,199.5 49.5,199.167 49.5,198.5C 50.3382,198.158 50.6716,197.492 50.5,196.5C 51.1667,196.5 51.5,196.167 51.5,195.5C 52.3382,195.158 52.6716,194.492 52.5,193.5C 53.1667,193.5 53.5,193.167 53.5,192.5C 54.3382,192.158 54.6716,191.492 54.5,190.5C 55.8333,190.167 55.8333,189.833 54.5,189.5C 54.3284,188.508 54.6618,187.842 55.5,187.5C 56.3285,188.332 57.1618,187.999 58,186.5C 58.3742,185.584 58.8742,184.75 59.5,184C 59.2716,183.601 58.9382,183.435 58.5,183.5C 58.3284,182.508 58.6618,181.842 59.5,181.5C 60.0778,182.547 60.7445,182.38 61.5,181C 61.2716,180.601 60.9382,180.435 60.5,180.5C 60.4614,179.244 60.9614,178.244 62,177.5C 62.4999,189.162 62.6665,200.829 62.5,212.5 Z"/></g>
<g><path style="opacity:0.384" fill="#c8a872" d="M 95.5,135.5 C 95.8333,135.5 96.1667,135.5 96.5,135.5C 96.5,161.167 96.5,186.833 96.5,212.5C 101.511,212.334 106.511,212.501 111.5,213C 110.513,223.418 110.18,233.918 110.5,244.5C 110.167,244.5 109.833,244.5 109.5,244.5C 109.5,234.167 109.5,223.833 109.5,213.5C 104.833,213.5 100.167,213.5 95.5,213.5C 95.5,187.5 95.5,161.5 95.5,135.5 Z"/></g>
<g><path style="opacity:0.004" fill="#000000" d="M 176.5,162.5 C 177.833,163.167 177.833,163.167 176.5,162.5 Z"/></g>
<g><path style="opacity:0.004" fill="#000000" d="M 194.5,163.5 C 193.833,162.167 193.833,162.167 194.5,163.5 Z"/></g>
<g><path style="opacity:0.169" fill="#ae9765" d="M 194.5,163.5 C 207.011,163.171 219.345,163.505 231.5,164.5C 231.167,164.5 230.833,164.5 230.5,164.5C 218.833,164.5 207.167,164.5 195.5,164.5C 195.826,168.884 195.492,173.217 194.5,177.5C 193.893,177.376 193.56,177.043 193.5,176.5C 194.485,172.366 194.818,168.032 194.5,163.5 Z"/></g>
<g><path style="opacity:0.004" fill="#000000" d="M 148.5,165.5 C 147.833,164.167 147.833,164.167 148.5,165.5 Z"/></g>
<g><path style="opacity:1" fill="#f3ad2f" d="M 176.5,163.5 C 177.313,164.653 178.313,164.653 179.5,163.5C 179.833,164.167 180.167,164.833 180.5,165.5C 181.086,165.291 181.586,164.957 182,164.5C 182.278,165.416 182.778,166.082 183.5,166.5C 185.125,168.708 187.125,169.541 189.5,169C 189.209,170.958 190.209,172.458 192.5,173.5C 193.11,174.391 193.443,175.391 193.5,176.5C 193.56,177.043 193.893,177.376 194.5,177.5C 195.492,173.217 195.826,168.884 195.5,164.5C 207.167,164.5 218.833,164.5 230.5,164.5C 230.5,198.167 230.5,231.833 230.5,265.5C 218.5,265.5 206.5,265.5 194.5,265.5C 194.666,261.486 194.499,257.486 194,253.5C 193.487,254.527 192.987,255.527 192.5,256.5C 191.833,256.5 191.5,256.833 191.5,257.5C 190.833,257.5 190.5,257.833 190.5,258.5C 189.833,258.5 189.5,258.833 189.5,259.5C 188.833,259.5 188.5,259.833 188.5,260.5C 187.167,260.833 187.167,261.167 188.5,261.5C 188.158,262.338 187.492,262.672 186.5,262.5C 186.167,261.167 185.833,261.167 185.5,262.5C 184.167,262.833 184.167,263.167 185.5,263.5C 184.486,264.674 183.153,265.34 181.5,265.5C 181.5,264.833 181.167,264.5 180.5,264.5C 179.833,264.5 179.5,264.833 179.5,265.5C 171.963,267.258 164.296,267.925 156.5,267.5C 155.003,266.694 153.336,266.028 151.5,265.5C 150.158,266.902 149.324,266.569 149,264.5C 147.251,265.553 145.751,265.22 144.5,263.5C 145.833,263.167 145.833,262.833 144.5,262.5C 144.5,261.833 144.167,261.5 143.5,261.5C 142.293,260.811 140.959,260.645 139.5,261C 139.833,260.667 140.167,260.333 140.5,260C 135.927,255.83 132.427,251.996 130,248.5C 128.334,249.34 128.167,248.84 129.5,247C 128.747,245.513 127.914,245.346 127,246.5C 125.078,242.851 123.911,239.184 123.5,235.5C 120.833,221.833 120.833,208.167 123.5,194.5C 124.774,193.811 124.774,192.977 123.5,192C 125.569,191.676 125.902,190.842 124.5,189.5C 124.846,188.304 125.346,188.304 126,189.5C 126.464,188.906 126.631,188.239 126.5,187.5C 127.338,187.158 127.672,186.492 127.5,185.5C 128.267,184.828 128.934,183.995 129.5,183C 128.167,181.16 128.334,180.66 130,181.5C 132.088,178.335 135.255,174.835 139.5,171C 138.66,169.334 139.16,169.167 141,170.5C 142.487,169.747 142.654,168.914 141.5,168C 142.449,167.383 143.282,167.549 144,168.5C 144.995,167.934 145.828,167.267 146.5,166.5C 147.492,166.672 148.158,166.338 148.5,165.5C 149.239,165.631 149.906,165.464 150.5,165C 149.304,164.346 149.304,163.846 150.5,163.5C 152.156,165.022 153.323,164.689 154,162.5C 161.411,162.18 168.911,162.514 176.5,163.5 Z M 180.5,194.5 C 180.5,195.833 181.167,196.5 182.5,196.5C 182.842,197.338 183.508,197.672 184.5,197.5C 184.842,198.338 185.508,198.672 186.5,198.5C 187.167,199.833 188.167,200.833 189.5,201.5C 189.328,202.492 189.662,203.158 190.5,203.5C 190.833,204.833 191.167,204.833 191.5,203.5C 192.785,207.132 193.785,211.132 194.5,215.5C 194.553,218.785 193.886,221.785 192.5,224.5C 191.833,225.5 191.167,226.5 190.5,227.5C 188.071,228.855 186.738,230.522 186.5,232.5C 186.158,233.338 185.492,233.672 184.5,233.5C 182.363,234.352 179.697,235.019 176.5,235.5C 174.359,235.387 172.525,234.72 171,233.5C 169.16,234.833 168.66,234.666 169.5,233C 168.906,232.536 168.239,232.369 167.5,232.5C 166.167,230.5 164.5,228.833 162.5,227.5C 161.833,226.5 161.167,225.5 160.5,224.5C 159.095,221.938 158.429,218.771 158.5,215C 158.421,211.549 159.087,208.382 160.5,205.5C 161.167,204.5 161.833,203.5 162.5,202.5C 164.167,201.5 165.5,200.167 166.5,198.5C 167.492,198.672 168.158,198.338 168.5,197.5C 170.698,197.591 171.031,196.925 169.5,195.5C 173.119,194.756 176.785,194.423 180.5,194.5 Z"/></g>
<g><path style="opacity:0.008" fill="#000000" d="M 146.5,166.5 C 145.833,165.167 145.833,165.167 146.5,166.5 Z"/></g>
<g><path style="opacity:0.012" fill="#000000" d="M 183.5,165.5 C 184.833,166.167 184.833,166.167 183.5,165.5 Z"/></g>
<g><path style="opacity:0.012" fill="#000000" d="M 192.5,172.5 C 193.833,173.167 193.833,173.167 192.5,172.5 Z"/></g>
<g><path style="opacity:0.008" fill="#141414" d="M 28.5,175.5 C 28.5,176.167 28.1667,176.5 27.5,176.5C 26.2576,174.654 26.591,174.321 28.5,175.5 Z"/></g>
<g><path style="opacity:0.008" fill="#000000" d="M 127.5,185.5 C 126.833,184.167 126.833,184.167 127.5,185.5 Z"/></g>
<g><path style="opacity:0.004" fill="#000000" d="M 126.5,187.5 C 125.833,186.167 125.833,186.167 126.5,187.5 Z"/></g>
<g><path style="opacity:0.007" fill="#000000" d="M 16.5,191.5 C 16.5,191.833 16.5,192.167 16.5,192.5C 15.8333,192.5 15.5,192.833 15.5,193.5C 14.2875,192.503 14.4542,191.503 16,190.5C 16.3988,190.728 16.5654,191.062 16.5,191.5 Z"/></g>
<g><path style="opacity:0.006" fill="#191919" d="M 52.5,191.5 C 52.8417,190.662 53.5084,190.328 54.5,190.5C 54.6716,191.492 54.3382,192.158 53.5,192.5C 53.5,191.833 53.1667,191.5 52.5,191.5 Z"/></g>
<g><path style="opacity:0.008" fill="#141414" d="M 50.5,194.5 C 50.8417,193.662 51.5084,193.328 52.5,193.5C 52.6716,194.492 52.3382,195.158 51.5,195.5C 51.5,194.833 51.1667,194.5 50.5,194.5 Z"/></g>
<g><path style="opacity:0.004" fill="#000000" d="M 123.5,194.5 C 122.833,193.167 122.833,193.167 123.5,194.5 Z"/></g>
<g><path style="opacity:0.004" fill="#2a2418" d="M 180.5,194.5 C 181.833,194.5 182.5,195.167 182.5,196.5C 182.5,195.167 181.833,194.5 180.5,194.5 Z"/></g>
<g><path style="opacity:1" fill="#877039" d="M 183.5,195.5 C 185.38,195.229 186.713,195.896 187.5,197.5C 186.833,197.5 186.5,197.833 186.5,198.5C 185.508,198.672 184.842,198.338 184.5,197.5C 183.508,197.672 182.842,197.338 182.5,196.5C 183.167,196.5 183.5,196.167 183.5,195.5 Z"/></g>
<g><path style="opacity:0.006" fill="#1d1d1d" d="M 169.5,195.5 C 171.031,196.925 170.698,197.591 168.5,197.5C 168.328,196.508 168.662,195.842 169.5,195.5 Z"/></g>
<g><path style="opacity:0.006" fill="#191915" d="M 46.5,200.5 C 46.8417,199.662 47.5084,199.328 48.5,199.5C 48.6716,200.492 48.3382,201.158 47.5,201.5C 47.5,200.833 47.1667,200.5 46.5,200.5 Z"/></g>
<g><path style="opacity:0.008" fill="#181818" d="M 44.5,203.5 C 44.8417,202.662 45.5084,202.328 46.5,202.5C 46.6716,203.492 46.3382,204.158 45.5,204.5C 45.5,203.833 45.1667,203.5 44.5,203.5 Z"/></g>
<g><path style="opacity:0.008" fill="#1e1717" d="M 7.5,205.5 C 7.5,206.167 7.16667,206.5 6.5,206.5C 5.25763,204.654 5.59096,204.321 7.5,205.5 Z"/></g>
<g><path style="opacity:0.008" fill="#1b1b16" d="M 42.5,206.5 C 42.8417,205.662 43.5084,205.328 44.5,205.5C 44.6716,206.492 44.3382,207.158 43.5,207.5C 43.5,206.833 43.1667,206.5 42.5,206.5 Z"/></g>
<g><path style="opacity:0.086" fill="#89745d" d="M 39.5,211.5 C 46.9818,212.492 54.6484,212.825 62.5,212.5C 54.6572,213.82 46.6572,213.82 38.5,212.5C 38.6236,211.893 38.9569,211.56 39.5,211.5 Z"/></g>
<g><path style="opacity:0.004" fill="#000000" d="M 386.5,229.5 C 387.833,230.167 387.833,230.167 386.5,229.5 Z"/></g>
<g><path style="opacity:1" fill="#efac30" d="M 386.5,230.5 C 388.435,230.205 390.435,230.705 392.5,232C 391.434,233.159 391.767,233.992 393.5,234.5C 394.272,235.694 395.272,236.694 396.5,237.5C 396.833,238.5 397.5,239.167 398.5,239.5C 398.328,240.492 398.662,241.158 399.5,241.5C 399.5,246.5 399.5,251.5 399.5,256.5C 398.662,256.842 398.328,257.508 398.5,258.5C 397.833,258.5 397.5,258.833 397.5,259.5C 396.833,259.5 396.5,259.833 396.5,260.5C 396.5,260.833 396.5,261.167 396.5,261.5C 395.833,261.5 395.5,261.833 395.5,262.5C 394.167,262.833 394.167,263.167 395.5,263.5C 395.158,264.338 394.492,264.672 393.5,264.5C 393.167,263.167 392.833,263.167 392.5,264.5C 391.167,264.833 391.167,265.167 392.5,265.5C 392.158,266.338 391.492,266.672 390.5,266.5C 390.167,265.167 389.833,265.167 389.5,266.5C 383.505,268.195 377.505,268.528 371.5,267.5C 371.158,266.662 370.492,266.328 369.5,266.5C 369.158,265.662 368.492,265.328 367.5,265.5C 367.167,264.167 366.833,264.167 366.5,265.5C 365.275,263.735 363.442,261.735 361,259.5C 360.667,259.833 360.333,260.167 360,260.5C 358.632,259.007 358.465,257.507 359.5,256C 358.833,255.667 358.167,255.333 357.5,255C 358.46,251.27 358.793,247.437 358.5,243.5C 359.774,242.811 359.774,241.977 358.5,241C 361.268,240.292 362.101,238.792 361,236.5C 361.333,236.833 361.667,237.167 362,237.5C 363.167,236.333 364.333,235.167 365.5,234C 365.167,233.667 364.833,233.333 364.5,233C 371.41,230.899 378.743,230.066 386.5,230.5 Z"/></g>
<g><path style="opacity:0.004" fill="#14130b" d="M 393.5,234.5 C 395.268,233.493 396.601,234.159 397.5,236.5C 397.376,237.107 397.043,237.44 396.5,237.5C 395.272,236.694 394.272,235.694 393.5,234.5 Z"/></g>
<g><path style="opacity:0.004" fill="#000000" d="M 123.5,235.5 C 122.833,236.167 122.833,236.167 123.5,235.5 Z"/></g>
<g><path style="opacity:0.008" fill="#000000" d="M 399.5,238.5 C 399.5,238.833 399.5,239.167 399.5,239.5C 398.83,239.019 398.83,238.685 399.5,238.5 Z"/></g>
<g><path style="opacity:0.004" fill="#000000" d="M 358.5,243.5 C 357.833,242.167 357.833,242.167 358.5,243.5 Z"/></g>
<g><path style="opacity:0.004" fill="#000000" d="M -0.5,244.5 C -0.166667,244.5 0.166667,244.5 0.5,244.5C 0.31468,245.17 -0.0186536,245.17 -0.5,244.5 Z"/></g>
<g><path style="opacity:0.004" fill="#000000" d="M 110.5,244.5 C 111.833,245.167 111.833,245.167 110.5,244.5 Z"/></g>
<g><path style="opacity:0.016" fill="#000000" d="M 192.5,256.5 C 193.833,257.167 193.833,257.167 192.5,256.5 Z"/></g>
<g><path style="opacity:0.016" fill="#000000" d="M 191.5,257.5 C 191.833,257.5 192.167,257.5 192.5,257.5C 192.315,258.17 191.981,258.17 191.5,257.5 Z"/></g>
<g><path style="opacity:0.016" fill="#000000" d="M 190.5,258.5 C 190.833,258.5 191.167,258.5 191.5,258.5C 191.315,259.17 190.981,259.17 190.5,258.5 Z"/></g>
<g><path style="opacity:0.012" fill="#000000" d="M 398.5,258.5 C 398.833,258.5 399.167,258.5 399.5,258.5C 399.5,258.833 399.5,259.167 399.5,259.5C 399.167,259.167 398.833,258.833 398.5,258.5 Z"/></g>
<g><path style="opacity:0.016" fill="#000000" d="M 189.5,259.5 C 189.833,259.5 190.167,259.5 190.5,259.5C 190.315,260.17 189.981,260.17 189.5,259.5 Z"/></g>
<g><path style="opacity:0.007" fill="#000000" d="M 397.5,259.5 C 397.833,259.5 398.167,259.5 398.5,259.5C 398.573,261.027 397.906,262.027 396.5,262.5C 396.5,262.167 396.5,261.833 396.5,261.5C 396.5,261.167 396.5,260.833 396.5,260.5C 397.167,260.5 397.5,260.167 397.5,259.5 Z"/></g>
<g><path style="opacity:0.012" fill="#000000" d="M 188.5,260.5 C 188.833,260.5 189.167,260.5 189.5,260.5C 189.315,261.17 188.981,261.17 188.5,260.5 Z"/></g>
<g><path style="opacity:0.006" fill="#15140f" d="M 143.5,261.5 C 144.167,261.5 144.5,261.833 144.5,262.5C 144.5,262.833 144.5,263.167 144.5,263.5C 142.302,263.591 141.969,262.925 143.5,261.5 Z"/></g>
<g><path style="opacity:0.012" fill="#000000" d="M 185.5,262.5 C 185.833,262.5 186.167,262.5 186.5,262.5C 186.315,263.17 185.981,263.17 185.5,262.5 Z"/></g>
<g><path style="opacity:0.008" fill="#000000" d="M 395.5,262.5 C 395.833,262.5 396.167,262.5 396.5,262.5C 396.315,263.17 395.981,263.17 395.5,262.5 Z"/></g>
<g><path style="opacity:0.016" fill="#000000" d="M 392.5,264.5 C 392.833,264.5 393.167,264.5 393.5,264.5C 393.315,265.17 392.981,265.17 392.5,264.5 Z"/></g>
<g><path style="opacity:0.471" fill="#9a722f" d="M 59.5,244.5 C 60.4912,251.313 60.8245,258.313 60.5,265.5C 72.1667,265.5 83.8333,265.5 95.5,265.5C 95.1755,258.313 95.5088,251.313 96.5,244.5C 96.5,251.833 96.5,259.167 96.5,266.5C 84.1667,266.5 71.8333,266.5 59.5,266.5C 59.5,259.167 59.5,251.833 59.5,244.5 Z"/></g>
<g><path style="opacity:0.004" fill="#0c0c0c" d="M 180.5,264.5 C 181.167,264.5 181.5,264.833 181.5,265.5C 180.833,266.833 180.167,266.833 179.5,265.5C 179.5,264.833 179.833,264.5 180.5,264.5 Z"/></g>
<g><path style="opacity:0.471" fill="#6b4b19" d="M 230.5,164.5 C 230.833,164.5 231.167,164.5 231.5,164.5C 231.667,198.835 231.5,233.168 231,267.5C 218.914,266.512 206.747,266.178 194.5,266.5C 194.5,266.167 194.5,265.833 194.5,265.5C 206.5,265.5 218.5,265.5 230.5,265.5C 230.5,231.833 230.5,198.167 230.5,164.5 Z"/></g>
<g><path style="opacity:0.008" fill="#000000" d="M 366.5,265.5 C 366.833,265.5 367.167,265.5 367.5,265.5C 367.315,266.17 366.981,266.17 366.5,265.5 Z"/></g>
<g><path style="opacity:0.012" fill="#000000" d="M 59.5,266.5 C 58.8333,267.167 58.8333,267.167 59.5,266.5 Z"/></g>
<g><path style="opacity:0.008" fill="#000000" d="M 96.5,266.5 C 97.8333,267.167 97.8333,267.167 96.5,266.5 Z"/></g>
<g><path style="opacity:0.012" fill="#000000" d="M 194.5,266.5 C 193.833,267.167 193.833,267.167 194.5,266.5 Z"/></g>
<g><path style="opacity:0.016" fill="#000000" d="M 250.5,266.5 C 249.833,267.167 249.833,267.167 250.5,266.5 Z"/></g>
<g><path style="opacity:0.012" fill="#000000" d="M 286.5,266.5 C 287.833,267.167 287.833,267.167 286.5,266.5 Z"/></g>
<g><path style="opacity:0.012" fill="#000000" d="M 342.5,266.5 C 343.833,267.167 343.833,267.167 342.5,266.5 Z"/></g>
<g><path style="opacity:0.008" fill="#000000" d="M 369.5,266.5 C 368.833,267.167 368.833,267.167 369.5,266.5 Z"/></g>
<g><path style="opacity:0.004" fill="#000000" d="M 389.5,266.5 C 389.833,266.5 390.167,266.5 390.5,266.5C 390.315,267.17 389.981,267.17 389.5,266.5 Z"/></g>
<g><path style="opacity:0.004" fill="#000000" d="M 156.5,267.5 C 155.833,268.167 155.833,268.167 156.5,267.5 Z"/></g>
<g><path style="opacity:0.004" fill="#000000" d="M 371.5,267.5 C 370.833,268.167 370.833,268.167 371.5,267.5 Z"/></g>
<g><path style="opacity:0.004" fill="#000000" d="M 387.5,267.5 C 388.833,268.167 388.833,268.167 387.5,267.5 Z"/></g>
</svg>
